<?xml version="1.0" encoding="UTF-8" standalone="no"?>
<!DOCTYPE svg PUBLIC "-//W3C//DTD SVG 1.1//EN"
 "http://www.w3.org/Graphics/SVG/1.1/DTD/svg11.dtd">
<!-- Generated by graphviz version 2.47.0 (20210316.0004)
 -->
<!-- Title: dependencies Pages: 1 -->
<svg width="594pt" height="211pt"
 viewBox="0.00 0.00 594.00 211.00" xmlns="http://www.w3.org/2000/svg" xmlns:xlink="http://www.w3.org/1999/xlink">
<g id="graph0" class="graph" transform="scale(1 1) rotate(0) translate(4 207)">
<title>dependencies</title>
<polygon fill="white" stroke="transparent" points="-4,4 -4,-207 590,-207 590,4 -4,4"/>
<text text-anchor="start" x="272.01" y="-42.4" font-family="Times-12" font-weight="bold" font-size="14.00">Legend</text>
<polygon fill="#ffffb3" stroke="transparent" points="59,-10 59,-30 79,-30 79,-10 59,-10"/>
<text text-anchor="start" x="82.63" y="-15.4" font-family="Times-12" font-size="14.00"> &#160;Declarations</text>
<polygon fill="#8dd3c7" stroke="transparent" points="172,-10 172,-30 192,-30 192,-10 172,-10"/>
<text text-anchor="start" x="195.73" y="-15.4" font-family="Times-12" font-size="14.00"> &#160;Module</text>
<polygon fill="#80b1d3" stroke="transparent" points="258,-10 258,-30 278,-30 278,-10 258,-10"/>
<text text-anchor="start" x="281.78" y="-15.4" font-family="Times-12" font-size="14.00"> &#160;Bootstrap</text>
<polygon fill="#fdb462" stroke="transparent" points="355,-10 355,-30 375,-30 375,-10 355,-10"/>
<text text-anchor="start" x="378.67" y="-15.4" font-family="Times-12" font-size="14.00"> &#160;Providers</text>
<polygon fill="#fb8072" stroke="transparent" points="451,-10 451,-30 471,-30 471,-10 451,-10"/>
<text text-anchor="start" x="474.73" y="-15.4" font-family="Times-12" font-size="14.00"> &#160;Exports</text>
<g id="clust1" class="cluster">
<title>cluster_AppModule</title>
<polygon fill="none" stroke="black" stroke-dasharray="1,5" points="8,-70 8,-195 578,-195 578,-70 8,-70"/>
</g>
<g id="clust3" class="cluster">
<title>cluster_AppModule_imports</title>
<polygon fill="none" stroke="black" points="154,-78 154,-130 570,-130 570,-78 154,-78"/>
</g>
<g id="clust6" class="cluster">
<title>cluster_AppModule_providers</title>
<polygon fill="none" stroke="black" points="16,-78 16,-130 146,-130 146,-78 16,-78"/>
</g>
<!-- AuthModule -->
<g id="node1" class="node">
<title>AuthModule</title>
<polygon fill="#8dd3c7" stroke="black" points="561.55,-122 558.55,-126 537.55,-126 534.55,-122 474.45,-122 474.45,-86 561.55,-86 561.55,-122"/>
<text text-anchor="middle" x="518" y="-99.8" font-family="Times,serif" font-size="14.00">AuthModule</text>
</g>
<!-- AppModule -->
<g id="node5" class="node">
<title>AppModule</title>
<polygon fill="#8dd3c7" stroke="black" points="352.66,-187 349.66,-191 328.66,-191 325.66,-187 269.34,-187 269.34,-151 352.66,-151 352.66,-187"/>
<text text-anchor="middle" x="311" y="-164.8" font-family="Times,serif" font-size="14.00">AppModule</text>
</g>
<!-- AuthModule&#45;&gt;AppModule -->
<g id="edge1" class="edge">
<title>AuthModule&#45;&gt;AppModule</title>
<path fill="none" stroke="black" d="M518,-122.28C518,-143.32 518,-175 518,-175 518,-175 362.89,-175 362.89,-175"/>
<polygon fill="black" stroke="black" points="362.89,-171.5 352.89,-175 362.89,-178.5 362.89,-171.5"/>
</g>
<!-- TestModule -->
<g id="node2" class="node">
<title>TestModule</title>
<polygon fill="#8dd3c7" stroke="black" points="455.65,-122 452.65,-126 431.65,-126 428.65,-122 372.35,-122 372.35,-86 455.65,-86 455.65,-122"/>
<text text-anchor="middle" x="414" y="-99.8" font-family="Times,serif" font-size="14.00">TestModule</text>
</g>
<!-- TestModule&#45;&gt;AppModule -->
<g id="edge2" class="edge">
<title>TestModule&#45;&gt;AppModule</title>
<path fill="none" stroke="black" d="M414,-122.02C414,-139.37 414,-163 414,-163 414,-163 362.89,-163 362.89,-163"/>
<polygon fill="black" stroke="black" points="362.89,-159.5 352.89,-163 362.89,-166.5 362.89,-159.5"/>
</g>
<!-- UserModule -->
<g id="node3" class="node">
<title>UserModule</title>
<polygon fill="#8dd3c7" stroke="black" points="353.98,-122 350.98,-126 329.98,-126 326.98,-122 268.02,-122 268.02,-86 353.98,-86 353.98,-122"/>
<text text-anchor="middle" x="311" y="-99.8" font-family="Times,serif" font-size="14.00">UserModule</text>
</g>
<!-- UserModule&#45;&gt;AppModule -->
<g id="edge3" class="edge">
<title>UserModule&#45;&gt;AppModule</title>
<path fill="none" stroke="black" d="M311,-122.11C311,-122.11 311,-140.99 311,-140.99"/>
<polygon fill="black" stroke="black" points="307.5,-140.99 311,-150.99 314.5,-140.99 307.5,-140.99"/>
</g>
<!-- usersModule -->
<g id="node4" class="node">
<title>usersModule</title>
<polygon fill="#8dd3c7" stroke="black" points="250.31,-122 247.31,-126 226.31,-126 223.31,-122 161.69,-122 161.69,-86 250.31,-86 250.31,-122"/>
<text text-anchor="middle" x="206" y="-99.8" font-family="Times,serif" font-size="14.00">usersModule</text>
</g>
<!-- usersModule&#45;&gt;AppModule -->
<g id="edge4" class="edge">
<title>usersModule&#45;&gt;AppModule</title>
<path fill="none" stroke="black" d="M206,-122.02C206,-139.37 206,-163 206,-163 206,-163 259.2,-163 259.2,-163"/>
<polygon fill="black" stroke="black" points="259.2,-166.5 269.2,-163 259.2,-159.5 259.2,-166.5"/>
</g>
<!-- AppService -->
<g id="node6" class="node">
<title>AppService</title>
<ellipse fill="#fdb462" stroke="black" cx="81" cy="-104" rx="56.74" ry="18"/>
<text text-anchor="middle" x="81" y="-99.8" font-family="Times,serif" font-size="14.00">AppService</text>
</g>
<!-- AppService&#45;&gt;AppModule -->
<g id="edge5" class="edge">
<title>AppService&#45;&gt;AppModule</title>
<path fill="none" stroke="black" d="M81,-122.28C81,-143.32 81,-175 81,-175 81,-175 259.08,-175 259.08,-175"/>
<polygon fill="black" stroke="black" points="259.08,-178.5 269.08,-175 259.08,-171.5 259.08,-178.5"/>
</g>
</g>
</svg>
