<?xml version="1.0" encoding="UTF-8" standalone="no"?>
<!DOCTYPE svg PUBLIC "-//W3C//DTD SVG 1.1//EN"
 "http://www.w3.org/Graphics/SVG/1.1/DTD/svg11.dtd">
<!-- Generated by graphviz version 2.47.0 (20210316.0004)
 -->
<!-- Title: dependencies Pages: 1 -->
<svg width="1148pt" height="298pt"
 viewBox="0.00 0.00 1148.00 298.00" xmlns="http://www.w3.org/2000/svg" xmlns:xlink="http://www.w3.org/1999/xlink">
<g id="graph0" class="graph" transform="scale(1 1) rotate(0) translate(4 294)">
<title>dependencies</title>
<polygon fill="white" stroke="transparent" points="-4,4 -4,-294 1144,-294 1144,4 -4,4"/>
<text text-anchor="start" x="549.01" y="-42.4" font-family="Times-12" font-weight="bold" font-size="14.00">Legend</text>
<polygon fill="#ffffb3" stroke="transparent" points="336,-10 336,-30 356,-30 356,-10 336,-10"/>
<text text-anchor="start" x="359.63" y="-15.4" font-family="Times-12" font-size="14.00"> &#160;Declarations</text>
<polygon fill="#8dd3c7" stroke="transparent" points="449,-10 449,-30 469,-30 469,-10 449,-10"/>
<text text-anchor="start" x="472.73" y="-15.4" font-family="Times-12" font-size="14.00"> &#160;Module</text>
<polygon fill="#80b1d3" stroke="transparent" points="535,-10 535,-30 555,-30 555,-10 535,-10"/>
<text text-anchor="start" x="558.78" y="-15.4" font-family="Times-12" font-size="14.00"> &#160;Bootstrap</text>
<polygon fill="#fdb462" stroke="transparent" points="632,-10 632,-30 652,-30 652,-10 632,-10"/>
<text text-anchor="start" x="655.67" y="-15.4" font-family="Times-12" font-size="14.00"> &#160;Providers</text>
<polygon fill="#fb8072" stroke="transparent" points="728,-10 728,-30 748,-30 748,-10 728,-10"/>
<text text-anchor="start" x="751.73" y="-15.4" font-family="Times-12" font-size="14.00"> &#160;Exports</text>
<g id="clust1" class="cluster">
<title>cluster_AppModule</title>
<polygon fill="none" stroke="black" stroke-dasharray="1,5" points="8,-146 8,-274 578,-274 578,-146 8,-146"/>
</g>
<g id="clust3" class="cluster">
<title>cluster_AppModule_imports</title>
<polygon fill="none" stroke="black" points="154,-154 154,-206 570,-206 570,-154 154,-154"/>
</g>
<g id="clust6" class="cluster">
<title>cluster_AppModule_providers</title>
<polygon fill="none" stroke="black" points="16,-154 16,-206 146,-206 146,-154 16,-154"/>
</g>
<g id="clust7" class="cluster">
<title>cluster_AuthModule</title>
<polygon fill="none" stroke="black" stroke-dasharray="1,5" points="586,-214 586,-282 850,-282 850,-214 586,-214"/>
</g>
<g id="clust10" class="cluster">
<title>cluster_AuthModule_exports</title>
<polygon fill="none" stroke="black" points="736,-222 736,-274 842,-274 842,-222 736,-222"/>
</g>
<g id="clust12" class="cluster">
<title>cluster_AuthModule_providers</title>
<polygon fill="none" stroke="black" points="594,-222 594,-274 728,-274 728,-222 594,-222"/>
</g>
<g id="clust13" class="cluster">
<title>cluster_TestModule</title>
<polygon fill="none" stroke="black" stroke-dasharray="1,5" points="128,-70 128,-138 280,-138 280,-70 128,-70"/>
</g>
<g id="clust18" class="cluster">
<title>cluster_TestModule_providers</title>
<polygon fill="none" stroke="black" points="136,-78 136,-130 272,-130 272,-78 136,-78"/>
</g>
<g id="clust25" class="cluster">
<title>cluster_usersModule</title>
<polygon fill="none" stroke="black" stroke-dasharray="1,5" points="858,-214 858,-282 1132,-282 1132,-214 858,-214"/>
</g>
<g id="clust28" class="cluster">
<title>cluster_usersModule_exports</title>
<polygon fill="none" stroke="black" points="1014,-222 1014,-274 1124,-274 1124,-222 1014,-222"/>
</g>
<g id="clust30" class="cluster">
<title>cluster_usersModule_providers</title>
<polygon fill="none" stroke="black" points="866,-222 866,-274 1006,-274 1006,-222 866,-222"/>
</g>
<!-- AuthModule -->
<g id="node1" class="node">
<title>AuthModule</title>
<polygon fill="#8dd3c7" stroke="black" points="455.55,-198 452.55,-202 431.55,-202 428.55,-198 368.45,-198 368.45,-162 455.55,-162 455.55,-198"/>
<text text-anchor="middle" x="412" y="-175.8" font-family="Times,serif" font-size="14.00">AuthModule</text>
</g>
<!-- AppModule -->
<g id="node5" class="node">
<title>AppModule</title>
<polygon fill="#8dd3c7" stroke="black" points="348.66,-266 345.66,-270 324.66,-270 321.66,-266 265.34,-266 265.34,-230 348.66,-230 348.66,-266"/>
<text text-anchor="middle" x="307" y="-243.8" font-family="Times,serif" font-size="14.00">AppModule</text>
</g>
<!-- AuthModule&#45;&gt;AppModule -->
<g id="edge1" class="edge">
<title>AuthModule&#45;&gt;AppModule</title>
<path fill="none" stroke="black" d="M412,-198.22C412,-218.37 412,-248 412,-248 412,-248 358.8,-248 358.8,-248"/>
<polygon fill="black" stroke="black" points="358.8,-244.5 348.8,-248 358.8,-251.5 358.8,-244.5"/>
</g>
<!-- AuthService  -->
<g id="node7" class="node">
<title>AuthService </title>
<polygon fill="#fb8072" stroke="black" points="833.98,-266 744.02,-266 744.02,-230 833.98,-230 833.98,-266"/>
<text text-anchor="middle" x="789" y="-243.8" font-family="Times,serif" font-size="14.00">AuthService </text>
</g>
<!-- AuthModule&#45;&gt;AuthService  -->
<g id="edge6" class="edge">
<title>AuthModule&#45;&gt;AuthService </title>
<path fill="none" stroke="black" stroke-dasharray="5,2" d="M390.11,-198.19C390.11,-206.28 390.11,-214 390.11,-214 390.11,-214 789,-214 789,-214 789,-214 789,-219.81 789,-219.81"/>
<polygon fill="black" stroke="black" points="785.5,-219.81 789,-229.81 792.5,-219.81 785.5,-219.81"/>
</g>
<!-- TestModule -->
<g id="node2" class="node">
<title>TestModule</title>
<polygon fill="#8dd3c7" stroke="black" points="245.65,-198 242.65,-202 221.65,-202 218.65,-198 162.35,-198 162.35,-162 245.65,-162 245.65,-198"/>
<text text-anchor="middle" x="204" y="-175.8" font-family="Times,serif" font-size="14.00">TestModule</text>
</g>
<!-- TestModule&#45;&gt;AppModule -->
<g id="edge2" class="edge">
<title>TestModule&#45;&gt;AppModule</title>
<path fill="none" stroke="black" d="M204,-198.27C204,-216.56 204,-242 204,-242 204,-242 255.11,-242 255.11,-242"/>
<polygon fill="black" stroke="black" points="255.11,-245.5 265.11,-242 255.11,-238.5 255.11,-245.5"/>
</g>
<!-- UserModule -->
<g id="node3" class="node">
<title>UserModule</title>
<polygon fill="#8dd3c7" stroke="black" points="349.98,-198 346.98,-202 325.98,-202 322.98,-198 264.02,-198 264.02,-162 349.98,-162 349.98,-198"/>
<text text-anchor="middle" x="307" y="-175.8" font-family="Times,serif" font-size="14.00">UserModule</text>
</g>
<!-- UserModule&#45;&gt;AppModule -->
<g id="edge3" class="edge">
<title>UserModule&#45;&gt;AppModule</title>
<path fill="none" stroke="black" d="M307,-198.22C307,-198.22 307,-219.73 307,-219.73"/>
<polygon fill="black" stroke="black" points="303.5,-219.73 307,-229.73 310.5,-219.73 303.5,-219.73"/>
</g>
<!-- usersModule -->
<g id="node4" class="node">
<title>usersModule</title>
<polygon fill="#8dd3c7" stroke="black" points="562.31,-198 559.31,-202 538.31,-202 535.31,-198 473.69,-198 473.69,-162 562.31,-162 562.31,-198"/>
<text text-anchor="middle" x="518" y="-175.8" font-family="Times,serif" font-size="14.00">usersModule</text>
</g>
<!-- usersModule&#45;&gt;AppModule -->
<g id="edge4" class="edge">
<title>usersModule&#45;&gt;AppModule</title>
<path fill="none" stroke="black" d="M518,-198.25C518,-221.02 518,-257 518,-257 518,-257 358.69,-257 358.69,-257"/>
<polygon fill="black" stroke="black" points="358.69,-253.5 348.69,-257 358.69,-260.5 358.69,-253.5"/>
</g>
<!-- UsersService  -->
<g id="node10" class="node">
<title>UsersService </title>
<polygon fill="#fb8072" stroke="black" points="1115.85,-266 1022.15,-266 1022.15,-230 1115.85,-230 1115.85,-266"/>
<text text-anchor="middle" x="1069" y="-243.8" font-family="Times,serif" font-size="14.00">UsersService </text>
</g>
<!-- usersModule&#45;&gt;UsersService  -->
<g id="edge9" class="edge">
<title>usersModule&#45;&gt;UsersService </title>
<path fill="none" stroke="black" stroke-dasharray="5,2" d="M562.16,-174C692.91,-174 1069,-174 1069,-174 1069,-174 1069,-219.71 1069,-219.71"/>
<polygon fill="black" stroke="black" points="1065.5,-219.71 1069,-229.71 1072.5,-219.71 1065.5,-219.71"/>
</g>
<!-- AppService -->
<g id="node6" class="node">
<title>AppService</title>
<ellipse fill="#fdb462" stroke="black" cx="81" cy="-180" rx="56.74" ry="18"/>
<text text-anchor="middle" x="81" y="-175.8" font-family="Times,serif" font-size="14.00">AppService</text>
</g>
<!-- AppService&#45;&gt;AppModule -->
<g id="edge5" class="edge">
<title>AppService&#45;&gt;AppModule</title>
<path fill="none" stroke="black" d="M81,-198.29C81,-220.21 81,-254 81,-254 81,-254 255.28,-254 255.28,-254"/>
<polygon fill="black" stroke="black" points="255.28,-257.5 265.28,-254 255.28,-250.5 255.28,-257.5"/>
</g>
<!-- AuthService -->
<g id="node8" class="node">
<title>AuthService</title>
<ellipse fill="#fdb462" stroke="black" cx="661" cy="-248" rx="59.11" ry="18"/>
<text text-anchor="middle" x="661" y="-243.8" font-family="Times,serif" font-size="14.00">AuthService</text>
</g>
<!-- AuthService&#45;&gt;AuthModule -->
<g id="edge7" class="edge">
<title>AuthService&#45;&gt;AuthModule</title>
<path fill="none" stroke="black" d="M609.46,-239C542.46,-239 433.89,-239 433.89,-239 433.89,-239 433.89,-208.02 433.89,-208.02"/>
<polygon fill="black" stroke="black" points="437.39,-208.02 433.89,-198.02 430.39,-208.02 437.39,-208.02"/>
</g>
<!-- PostsService -->
<g id="node9" class="node">
<title>PostsService</title>
<ellipse fill="#fdb462" stroke="black" cx="204" cy="-104" rx="60.27" ry="18"/>
<text text-anchor="middle" x="204" y="-99.8" font-family="Times,serif" font-size="14.00">PostsService</text>
</g>
<!-- PostsService&#45;&gt;TestModule -->
<g id="edge8" class="edge">
<title>PostsService&#45;&gt;TestModule</title>
<path fill="none" stroke="black" d="M204,-122.01C204,-122.01 204,-151.85 204,-151.85"/>
<polygon fill="black" stroke="black" points="200.5,-151.85 204,-161.85 207.5,-151.85 200.5,-151.85"/>
</g>
<!-- UsersService -->
<g id="node11" class="node">
<title>UsersService</title>
<ellipse fill="#fdb462" stroke="black" cx="936" cy="-248" rx="61.95" ry="18"/>
<text text-anchor="middle" x="936" y="-243.8" font-family="Times,serif" font-size="14.00">UsersService</text>
</g>
<!-- UsersService&#45;&gt;usersModule -->
<g id="edge10" class="edge">
<title>UsersService&#45;&gt;usersModule</title>
<path fill="none" stroke="black" d="M936,-229.73C936,-211.44 936,-186 936,-186 936,-186 572.34,-186 572.34,-186"/>
<polygon fill="black" stroke="black" points="572.34,-182.5 562.34,-186 572.34,-189.5 572.34,-182.5"/>
</g>
</g>
</svg>
